<?xml version="1.0" encoding="UTF-8" standalone="no"?>
<!-- Created with Inkscape (http://www.inkscape.org/) -->

<svg
   width="208.24149mm"
   height="201.49782mm"
   viewBox="0 0 208.24149 201.49782"
   version="1.1"
   id="svg5"
   xml:space="preserve"
   inkscape:export-filename="image.svg"
   inkscape:export-xdpi="96"
   inkscape:export-ydpi="96"
   sodipodi:docname="logo.svg"
   inkscape:version="1.2.2 (732a01da63, 2022-12-09)"
   xmlns:inkscape="http://www.inkscape.org/namespaces/inkscape"
   xmlns:sodipodi="http://sodipodi.sourceforge.net/DTD/sodipodi-0.dtd"
   xmlns="http://www.w3.org/2000/svg"
   xmlns:svg="http://www.w3.org/2000/svg"><sodipodi:namedview
     id="namedview7"
     pagecolor="#ffffff"
     bordercolor="#000000"
     borderopacity="0.25"
     inkscape:showpageshadow="2"
     inkscape:pageopacity="0.0"
     inkscape:pagecheckerboard="0"
     inkscape:deskcolor="#d1d1d1"
     inkscape:document-units="mm"
     showgrid="false"
     inkscape:zoom="0.52724989"
     inkscape:cx="-289.23667"
     inkscape:cy="460.88203"
     inkscape:window-width="1920"
     inkscape:window-height="1017"
     inkscape:window-x="-8"
     inkscape:window-y="-8"
     inkscape:window-maximized="1"
     inkscape:current-layer="layer1" /><defs
     id="defs2"><filter
       inkscape:collect="always"
       style="color-interpolation-filters:sRGB"
       id="filter1622"
       x="-0.030611923"
       y="-0.031213781"
       width="1.0612237"
       height="1.0624276"><feGaussianBlur
         inkscape:collect="always"
         stdDeviation="1.003041"
         id="feGaussianBlur1624" /></filter></defs><g
     inkscape:label="Calque 1"
     inkscape:groupmode="layer"
     id="layer1"
     transform="translate(-1.7603299,-63.478491)"><path
       style="fill:#000000;stroke-width:0.0336411;filter:url(#filter1622)"
       d="m 83.12484,136.24484 c -2.00258,-0.17017 -3.61661,-1.59174 -4.07755,-3.59132 l -0.0756,-0.32779 -0.0176,-10.06338 -0.0176,-10.06337 -5.3153,3.57932 c -2.92341,1.96862 -5.40612,3.6302 -5.51714,3.6924 -0.69781,0.39095 -1.54089,0.40536 -2.26876,0.0388 -0.74039,-0.3729 -1.20875,-1.03942 -1.31207,-1.8672 -0.0246,-0.1975 -0.0356,-6.34294 -0.0356,-20.003651 0,-21.302805 -0.0105,-20.005205 0.16624,-20.470465 0.24595,-0.64726 0.81025,-1.19427 1.4697,-1.42467 0.61874,-0.21618 1.36797,-0.16279 1.93002,0.13752 0.0833,0.0444 2.56598,1.70619 5.51714,3.69268 l 5.36576,3.611805 0.0177,-10.046575 0.0177,-10.04657 0.0723,-0.31211 c 0.38558,-1.66346 1.42715,-2.85291 2.97709,-3.39982 1.12278,-0.39617 2.50626,-0.30269 3.53629,0.23894 0.19607,0.1031 55.05524,34.558935 56.03537,35.194575 0.46009,0.29839 0.88693,0.79348 1.16181,1.34761 0.20819,0.41969 0.3048,0.75804 0.35538,1.24472 0.11542,1.11016 -0.3772,2.272933 -1.25914,2.972051 -0.2849,0.22584 -55.9609,35.22322 -56.32888,35.40778 -0.72169,0.36195 -1.58735,0.5276 -2.39741,0.45876 z"
       id="path181"
       transform="matrix(2.4337841,0,0,2.4337841,-144.19659,-74.589895)" /><path
       style="fill:#ffffff;fill-opacity:1;stroke-width:0.0803149;stroke-dasharray:none"
       d="m 46.699178,264.93953 c -4.8287,-0.41037 -8.720491,-3.83808 -9.831927,-8.65953 l -0.182291,-0.79037 -0.04235,-24.26512 -0.04235,-24.26512 -12.816403,8.63057 c -7.049019,4.74681 -13.035422,8.75323 -13.303089,8.90323 -1.6825725,0.94269 -3.7154383,0.97741 -5.4705384,0.0934 -1.7852523,-0.89914 -2.9145532,-2.50626 -3.1636985,-4.50223 -0.059394,-0.47619 -0.085916,-15.29429 -0.085916,-48.23339 0,-51.36599 -0.025309,-48.23718 0.4008689,-49.35901 0.5930159,-1.56069 1.9536484,-2.87968 3.5437605,-3.43521 1.4919349,-0.52127 3.2985083,-0.39255 4.6537125,0.33157 0.200786,0.10708 6.187166,4.11403 13.303112,8.90391 l 12.938069,8.70891 0.04283,-24.22462 0.04284,-24.224592 0.174501,-0.752525 c 0.92973,-4.010999 3.441175,-6.879067 7.178445,-8.197741 2.707293,-0.955283 6.043185,-0.729891 8.526841,0.576101 0.472737,0.248588 132.750825,83.329537 135.114145,84.862237 1.10937,0.71946 2.13857,1.91325 2.80138,3.24938 0.502,1.01196 0.73494,1.82782 0.85692,3.00131 0.27829,2.67686 -0.90954,5.48056 -3.03608,7.16629 -0.68697,0.54455 -134.934605,84.93129 -135.821894,85.37631 -1.740155,0.87274 -3.827489,1.27215 -5.780697,1.10619 z"
       id="path179" /><path
       style="fill:#000000;stroke:#000000;stroke-width:0.534561;stroke-opacity:1"
       d="m 37.250949,181.65939 c 16.79697,-24.17283 20.651816,-29.46099 22.268318,-30.54813 2.407299,-1.619 5.712759,-1.6267 8.088116,-0.0182 1.136646,0.7694 5.778288,7.07728 12.882399,17.50688 6.108004,8.96727 11.117269,16.48455 11.131646,16.70508 0.01403,0.22051 -8.894328,0.40092 -19.797176,0.40092 -10.902861,0 -19.743191,-0.18837 -19.645182,-0.41896 0.09794,-0.23048 1.485258,-2.27516 3.082773,-4.54376 l 2.904581,-4.12485 h 7.387996 7.388009 l -4.629263,-6.94932 c -2.546101,-3.82209 -4.772234,-6.94257 -4.946971,-6.93439 -0.174776,0.007 -3.886327,5.18006 -8.248015,11.49309 l -7.930309,11.47819 h -6.374162 -6.374138 z m 58.456703,3.40918 c 0.231057,-0.3848 1.726465,-2.44365 3.323143,-4.57524 l 2.903035,-3.87559 h 14.06294 c 12.07176,0 14.1819,-0.11903 14.90301,-0.84001 0.94718,-0.94721 1.06751,-2.24808 0.31782,-3.43649 -0.41971,-0.66529 -2.76493,-0.84734 -13.77368,-1.0691 -12.87983,-0.25947 -13.34444,-0.30677 -15.8876,-1.61681 -6.531038,-3.36431 -6.834291,-13.36549 -0.51378,-16.94455 3.60121,-2.03923 6.58676,-2.31226 23.64135,-2.16201 l 16.19756,0.14264 -3.29024,4.41014 -3.29025,4.41015 -12.37275,0.007 c -6.80504,0.003 -12.91665,0.15294 -13.58136,0.33118 -1.39527,0.37384 -2.17883,2.63464 -1.23954,3.57625 0.432,0.43306 4.74203,0.71234 13.83279,0.89635 12.00619,0.24314 13.4281,0.37034 15.66001,1.40266 3.25082,1.50353 4.89139,3.87796 5.1931,7.51606 0.42472,5.12189 -1.92581,9.13523 -6.57876,11.23262 -1.90537,0.85887 -4.19624,0.9818 -21.03258,1.12894 -15.459268,0.13506 -18.817961,0.0379 -18.474218,-0.53456 z"
       id="path209" /></g></svg>
