<?xml version="1.0" encoding="UTF-8" standalone="no"?>
<!-- Created with Inkscape (http://www.inkscape.org/) -->

<svg
   width="210mm"
   height="297mm"
   viewBox="0 0 210 297"
   version="1.1"
   id="svg5"
   xml:space="preserve"
   inkscape:export-filename="image.svg"
   inkscape:export-xdpi="96"
   inkscape:export-ydpi="96"
   sodipodi:docname="logo.svg"
   inkscape:version="1.2.2 (732a01da63, 2022-12-09)"
   xmlns:inkscape="http://www.inkscape.org/namespaces/inkscape"
   xmlns:sodipodi="http://sodipodi.sourceforge.net/DTD/sodipodi-0.dtd"
   xmlns="http://www.w3.org/2000/svg"
   xmlns:svg="http://www.w3.org/2000/svg"><sodipodi:namedview
     id="namedview7"
     pagecolor="#ffffff"
     bordercolor="#000000"
     borderopacity="0.25"
     inkscape:showpageshadow="2"
     inkscape:pageopacity="0.0"
     inkscape:pagecheckerboard="0"
     inkscape:deskcolor="#d1d1d1"
     inkscape:document-units="mm"
     showgrid="false"
     inkscape:zoom="0.52724989"
     inkscape:cx="-289.23667"
     inkscape:cy="460.88203"
     inkscape:window-width="1920"
     inkscape:window-height="1017"
     inkscape:window-x="-8"
     inkscape:window-y="-8"
     inkscape:window-maximized="1"
     inkscape:current-layer="layer1" /><defs
     id="defs2"><filter
       inkscape:collect="always"
       style="color-interpolation-filters:sRGB"
       id="filter1622"
       x="-0.030611923"
       y="-0.03121378"
       width="1.0612238"
       height="1.0624276"><feGaussianBlur
         inkscape:collect="always"
         stdDeviation="1.003041"
         id="feGaussianBlur1624" /></filter></defs><g
     inkscape:label="Calque 1"
     inkscape:groupmode="layer"
     id="layer1"><path
       style="fill:#000000;stroke-width:0.0336411;filter:url(#filter1622)"
       d="m 83.12484,136.24484 c -2.00258,-0.17017 -3.61661,-1.59174 -4.07755,-3.59132 l -0.0756,-0.32779 -0.0176,-10.06338 -0.0176,-10.06337 -5.3153,3.57932 c -2.92341,1.96862 -5.40612,3.6302 -5.51714,3.6924 -0.69781,0.39095 -1.54089,0.40536 -2.26876,0.0388 -0.74039,-0.3729 -1.20875,-1.03942 -1.31207,-1.8672 -0.0246,-0.1975 -0.0356,-6.34294 -0.0356,-20.003651 0,-21.302805 -0.0105,-20.005205 0.16624,-20.470465 0.24595,-0.64726 0.81025,-1.19427 1.4697,-1.42467 0.61874,-0.21618 1.36797,-0.16279 1.93002,0.13752 0.0833,0.0444 2.56598,1.70619 5.51714,3.69268 l 5.36576,3.611805 0.0177,-10.046575 0.0177,-10.04657 0.0723,-0.31211 c 0.38558,-1.66346 1.42715,-2.85291 2.97709,-3.39982 1.12278,-0.39617 2.50626,-0.30269 3.53629,0.23894 0.19607,0.1031 55.05524,34.558935 56.03537,35.194575 0.46009,0.29839 0.88693,0.79348 1.16181,1.34761 0.20819,0.41969 0.3048,0.75804 0.35538,1.24472 0.11542,1.11016 -0.3772,2.272933 -1.25914,2.972051 -0.2849,0.22584 -55.9609,35.22322 -56.32888,35.40778 -0.72169,0.36195 -1.58735,0.5276 -2.39741,0.45876 z"
       id="path181"
       transform="matrix(2.3340808,0,0,2.3340808,-131.19181,-99.31906)" /><path
       style="fill:#8b8589;fill-opacity:1;stroke-width:0.0770247;stroke-dasharray:none"
       d="m 51.883644,226.30108 c -4.630886,-0.39356 -8.363245,-3.68085 -9.429149,-8.30478 l -0.174823,-0.75799 -0.04062,-23.27107 -0.04062,-23.27106 -12.291361,8.277 c -6.760246,4.55235 -12.501408,8.39465 -12.758109,8.5385 -1.613644,0.90407 -3.563231,0.93737 -5.246431,0.0896 -1.712117,-0.8623 -2.7951545,-2.40359 -3.0340932,-4.31779 -0.056961,-0.45668 -0.082396,-14.66773 -0.082396,-46.25744 0,-49.261729 -0.024272,-46.261083 0.3844468,-47.336953 0.5687222,-1.496753 1.8736144,-2.761709 3.3985854,-3.294486 1.430815,-0.499914 3.16338,-0.376464 4.463066,0.317995 0.192561,0.102693 5.9337,3.945484 12.758132,8.539139 l 12.408043,8.352145 0.04108,-23.232225 0.04109,-23.232203 0.167353,-0.721696 c 0.891642,-3.846684 3.300202,-6.597257 6.88437,-7.86191 2.596385,-0.916149 5.795617,-0.69999 8.177527,0.5525 0.453371,0.238405 127.312505,79.915834 129.579005,81.385744 1.06393,0.68998 2.05096,1.83487 2.68662,3.11626 0.48143,0.97051 0.70483,1.75294 0.82182,2.87836 0.26689,2.5672 -0.87228,5.25605 -2.91171,6.87271 -0.65882,0.52224 -129.40682,81.45197 -130.257761,81.87875 -1.668866,0.83699 -3.67069,1.22004 -5.543883,1.06088 z"
       id="path179" /><path
       style="fill:#000000;stroke:#000000;stroke-width:0.512662;stroke-opacity:1"
       d="m 42.822474,146.43263 c 16.108859,-23.18256 19.805787,-28.25409 21.356066,-29.29669 2.308681,-1.55268 5.478728,-1.56006 7.756776,-0.0175 1.090081,0.73789 5.541572,6.78736 12.354653,16.7897 5.857781,8.59991 10.661835,15.80923 10.675623,16.02073 0.01346,0.21147 -8.52996,0.38449 -18.986157,0.38449 -10.456211,0 -18.934384,-0.18065 -18.84039,-0.4018 0.09392,-0.22103 1.424411,-2.18195 2.956483,-4.35762 l 2.78559,-3.95587 h 7.085337 7.085348 l -4.439618,-6.66462 c -2.441797,-3.66552 -4.576733,-6.65816 -4.744312,-6.65032 -0.167616,0.007 -3.727118,4.96786 -7.910123,11.02226 l -7.605434,11.00797 h -6.113035 -6.113013 z m 56.061944,3.26951 c 0.221591,-0.36903 1.655742,-2.34354 3.187002,-4.3878 l 2.78411,-3.71682 h 13.48683 c 11.57723,0 13.60093,-0.11416 14.29249,-0.80561 0.90838,-0.9084 1.02378,-2.15598 0.30481,-3.29571 -0.40252,-0.63803 -2.65167,-0.81263 -13.20943,-1.0253 -12.35219,-0.24884 -12.79777,-0.2942 -15.23674,-1.55058 -6.263488,-3.22648 -6.554318,-12.81795 -0.49273,-16.25038 3.45368,-1.9557 6.31692,-2.21754 22.67285,-2.07344 l 15.534,0.13679 -3.15545,4.22947 -3.15546,4.22949 -11.86588,0.007 c -6.52627,0.003 -12.3875,0.14667 -13.02498,0.31761 -1.33812,0.35852 -2.08958,2.5267 -1.18876,3.42974 0.4143,0.41532 4.54776,0.68316 13.2661,0.85963 11.51435,0.23318 12.878,0.35517 15.01848,1.3452 3.11765,1.44194 4.69101,3.7191 4.98036,7.20815 0.40732,4.91207 -1.84692,8.761 -6.30926,10.77246 -1.8273,0.82369 -4.02432,0.94159 -20.17094,1.08269 -14.82596,0.12954 -18.047063,0.0363 -17.717402,-0.51266 z"
       id="path209" /></g></svg>
